screens
 
http://i.imgur.com/k0odH.jpg
 
http://i.imgur.com/ZTVXm.jpg
 
http://i.imgur.com/RRa47.jpg
 
http://i.imgur.com/4Vjee.jpg
 
http://i.imgur.com/MUCjd.jpg
 
http://i.imgur.com/MU2po.jpg





Format                                   : AVI
Format/Info                              : Audio Video Interleave
Format profile                           : OpenDML
File size                                : 3.76 GiB
Duration                                 : 44mn 12s
Overall bit rate                         : 12.2 Mbps
Writing application                      : Lavf52.39.0

Video
ID                                       : 0
Format                                   : MPEG-4 Visual
Codec ID                                 : DIV3
Codec ID/Hint                            : DivX 3 Low
Duration                                 : 44mn 11s
Bit rate                                 : 12.0 Mbps
Width                                    : 1 920 pixels
Height                                   : 1 080 pixels
Display aspect ratio                     : 16:9
Frame rate                               : 29.970 fps
Color space                              : YUV
Chroma subsampling                       : 4:2:0
Bit depth                                : 8 bits
Compression mode                         : Lossy
Bits/(Pixel*Frame)                       : 0.193
Stream size                              : 3.70 GiB (98%)

Audio
ID                                       : 1
Format                                   : MPEG Audio
Format version                           : Version 1
Format profile                           : Layer 3
Mode                                     : Joint stereo
Mode extension                           : MS Stereo
Codec ID                                 : 55
Codec ID/Hint                            : MP3
Duration                                 : 44mn 12s
Bit rate mode                            : Constant
Bit rate                                 : 192 Kbps
Channel(s)                               : 2 channels
Sampling rate                            : 44.1 KHz
Compression mode                         : Lossy
Stream size                              : 60.7 MiB (2%)
Alignment                                : Aligned on interleaves
Interleave, duration                     : 26 ms (0.78 video frame)
Interleave, preload duration             : 52 ms
Writing library                          : LAME3.98.2